<svg xmlns="http://www.w3.org/2000/svg" viewBox="0 0 26.04 23.87"><defs><style>.cls-1{fill:gray;}</style></defs><title>Asset 2</title><g id="Layer_2" data-name="Layer 2"><g id="Layer_1-2" data-name="Layer 1"><path class="cls-1" d="M13,4.34a2.17,2.17,0,1,1,2.17-2.17A2.17,2.17,0,0,1,13,4.34ZM13,.87a1.3,1.3,0,1,0,1.3,1.3A1.3,1.3,0,0,0,13,.87Z"/><path class="cls-1" d="M26,23.87H0V9.11H26ZM.87,23h24.3V10H.87Z"/><path class="cls-1" d="M3.91,10a.4.4,0,0,1-.31-.13.43.43,0,0,1,0-.61L11,1.86a.43.43,0,0,1,.61,0,.44.44,0,0,1,0,.62L4.21,9.85A.39.39,0,0,1,3.91,10Z"/><path class="cls-1" d="M22.13,10a.43.43,0,0,1-.31-.13L14.45,2.48a.44.44,0,0,1,0-.62.43.43,0,0,1,.61,0l7.38,7.38a.44.44,0,0,1-.31.74Z"/><path class="cls-1" d="M5.41,21.26H5a2,2,0,0,1-2-2V13.68a2,2,0,0,1,2-2h.41a2,2,0,0,1,2,2V19.3A2,2,0,0,1,5.41,21.26ZM5,12.58a1.1,1.1,0,0,0-1.09,1.1V19.3A1.09,1.09,0,0,0,5,20.39h.41a1.09,1.09,0,0,0,1.1-1.09V13.68a1.1,1.1,0,0,0-1.1-1.1Z"/><path class="cls-1" d="M10.62,18.23h-.41a2,2,0,0,1-2-2V13.68a2,2,0,0,1,2-2h.41a2,2,0,0,1,2,2v2.58A2,2,0,0,1,10.62,18.23Zm-.41-5.65a1.1,1.1,0,0,0-1.1,1.1v2.58a1.1,1.1,0,0,0,1.1,1.1h.41a1.1,1.1,0,0,0,1.1-1.1V13.68a1.1,1.1,0,0,0-1.1-1.1Z"/><path class="cls-1" d="M13.89,21.26a.44.44,0,0,1-.44-.43V12.15a.44.44,0,0,1,.44-.43.43.43,0,0,1,.43.43v8.68A.43.43,0,0,1,13.89,21.26Z"/><path class="cls-1" d="M22.56,21.26a.43.43,0,0,1-.43-.43V12.15a.43.43,0,0,1,.43-.43.44.44,0,0,1,.44.43v8.68A.44.44,0,0,1,22.56,21.26Z"/><path class="cls-1" d="M19.09,21.26a.43.43,0,0,1-.43-.43V12.15a.43.43,0,0,1,.43-.43.44.44,0,0,1,.44.43v8.68A.44.44,0,0,1,19.09,21.26Z"/><path class="cls-1" d="M8.68,21.26a.44.44,0,0,1-.44-.43V16.06a.44.44,0,0,1,.44-.44.44.44,0,0,1,.43.44v4.77A.43.43,0,0,1,8.68,21.26Z"/><path class="cls-1" d="M17.36,16.92H13.89a.43.43,0,1,1,0-.86h3.47a.43.43,0,0,1,0,.86Z"/><path class="cls-1" d="M17.36,12.58H13.89a.43.43,0,1,1,0-.86h3.47a.43.43,0,0,1,0,.86Z"/><path class="cls-1" d="M17.36,21.26H13.89a.44.44,0,0,1-.44-.43.44.44,0,0,1,.44-.44h3.47a.44.44,0,0,1,.43.44A.43.43,0,0,1,17.36,21.26Z"/><path class="cls-1" d="M22.56,21.26a.43.43,0,0,1-.4-.27l-3.47-8.68a.43.43,0,0,1,.24-.56.44.44,0,0,1,.57.24L23,20.67a.43.43,0,0,1-.24.56A.51.51,0,0,1,22.56,21.26Z"/></g></g></svg>