<svg xmlns="http://www.w3.org/2000/svg" viewBox="0 0 32.3 32.4"><defs><style>.cls-1{fill:#fff;}</style></defs><title>Fill-62</title><g id="Layer_2" data-name="Layer 2"><g id="Layer_1-2" data-name="Layer 1"><path id="Fill-62" class="cls-1" d="M32.06,19.48C30.78,27.9,24.51,32.4,16.39,32.4a16.2,16.2,0,1,1,0-32.4c4.41,0,8.28,1.25,11.1,4L22.74,8.72A8.69,8.69,0,0,0,16.39,6.3,10.19,10.19,0,0,0,6.3,16.2a10.19,10.19,0,0,0,10.09,9.9,8.84,8.84,0,0,0,8.89-7.2H16.2V12.6H32a22.16,22.16,0,0,1,.28,3.6,21.53,21.53,0,0,1-.24,3.28"/></g></g></svg>