<svg xmlns="http://www.w3.org/2000/svg" viewBox="0 0 24.95 22.53"><defs><style>.cls-1{fill:gray;}</style></defs><title>Asset 5</title><g id="Layer_2" data-name="Layer 2"><g id="Layer_1-2" data-name="Layer 1"><path class="cls-1" d="M24.79,12.76,13.77.59A1.73,1.73,0,0,0,12.47,0h0a1.76,1.76,0,0,0-1.3.59L.16,12.76a.63.63,0,0,0,0,.88.61.61,0,0,0,.42.16.64.64,0,0,0,.47-.21l2.65-2.93v10a1.87,1.87,0,0,0,1.87,1.87H19.33a1.87,1.87,0,0,0,1.87-1.87v-10l2.66,2.93a.62.62,0,1,0,.93-.83ZM15,21.83H10V15.67a.62.62,0,0,1,.62-.62h3.75a.62.62,0,0,1,.62.62Zm5-1.17a.62.62,0,0,1-.62.62H16.22V15.67a1.87,1.87,0,0,0-1.87-1.87H10.6a1.87,1.87,0,0,0-1.87,1.87v5.61H5.61A.62.62,0,0,1,5,20.66V9.28L12.1,1.42a.5.5,0,0,1,.75,0L20,9.28Z"/></g></g></svg>