<svg xmlns="http://www.w3.org/2000/svg" viewBox="0 0 40.53 32.73"><defs><style>.cls-1{fill:#fff;}</style></defs><title>Page-1</title><g id="Layer_2" data-name="Layer 2"><g id="Layer_1-2" data-name="Layer 1"><g id="Page-1"><g id="Icons"><g id="_4--Twitter--_social_-media_-communication_-flat_" data-name="4--Twitter--(social,-media,-communication,-flat)"><path id="Fill-61" class="cls-1" d="M28.27,0a8.73,8.73,0,0,0-8.38,8.82V10C11.53,8.45,7.35,6.18,2.81,1.42c-2.71,5.25.25,9.7,3.56,12.1-2.21,0-4-.32-5.45-1.56a.15.15,0,0,0-.24.14,13.4,13.4,0,0,0,8.54,8.54c-2.9,0-4.87.43-6.9-.88a.15.15,0,0,0-.22.17c1.54,4.32,4.67,5.69,9.25,5.69C9.08,27.29,6.05,29.05.26,29.17a.26.26,0,0,0-.17.45c2.19,1.76,7.43,3.11,14.82,3.11C27.1,32.73,37,21.91,37,8.54V7.83a6.2,6.2,0,0,0,3.55-4.11.13.13,0,0,0-.16-.16L36.36,5a.09.09,0,0,1-.08-.15A11.07,11.07,0,0,0,39.81.1.08.08,0,0,0,39.7,0C37.78.81,36,1.57,34.5,2a.87.87,0,0,1-.72-.08c-1-.53-3.69-2-5.51-1.94"/></g></g></g></g></g></svg>