<svg xmlns="http://www.w3.org/2000/svg" viewBox="0 0 19.96 22.9"><defs><style>.cls-1{fill:gray;}</style></defs><title>Asset 4</title><g id="Layer_2" data-name="Layer 2"><g id="Layer_1-2" data-name="Layer 1"><path class="cls-1" d="M8.31,22H7.48c0-9.41-5-10.81-5.09-10.82l.21-.8C2.83,10.47,8.31,12,8.31,22Z"/><path class="cls-1" d="M12.47,22h-.83c0-10,5.48-11.56,5.72-11.62l.2.8-.1-.4.11.4C17.36,11.27,12.47,12.67,12.47,22Z"/><path class="cls-1" d="M2.91,18.61l-1.61-1A2.69,2.69,0,0,1,0,15.35V9.15H2.91ZM.83,10v5.37a1.84,1.84,0,0,0,.9,1.58l.35.21V10Z"/><path class="cls-1" d="M17.05,18.61V9.15H20v6.2a2.69,2.69,0,0,1-1.3,2.29ZM17.88,10v7.16l.35-.21a1.85,1.85,0,0,0,.89-1.58V10Z"/><path class="cls-1" d="M8.67,22.9l-.24-.15L2.08,18.09V9.36l5.84,2.41a1.56,1.56,0,0,1,1.23,1.55v9.32ZM2.91,17.67l5.4,4V13.3a.74.74,0,0,0-.6-.73l-.07,0-4.73-2Z"/><path class="cls-1" d="M10,9.77a45.52,45.52,0,0,1-7.55-.63l-.35-.06V8.31A7.87,7.87,0,0,1,13.23,1.13a8.52,8.52,0,0,1,3.89,3.94,8.15,8.15,0,0,1,.76,3.42v.59l-.35.06A45.7,45.7,0,0,1,10,9.77ZM2.91,8.38A45.25,45.25,0,0,0,17,8.38a7.15,7.15,0,0,0-.68-3A7.8,7.8,0,0,0,12.91,1.9h0a6.79,6.79,0,0,0-2.65-.64A7.07,7.07,0,0,0,2.91,8.31Z"/><rect class="cls-1" x="17.05" y="8.73" width="0.83" height="1.25"/><rect class="cls-1" x="2.08" y="8.73" width="0.83" height="1.25"/><rect class="cls-1" x="0.83" y="1.25" width="0.83" height="8.31"/><path class="cls-1" d="M4.57,2.08H.83V0H4.57ZM1.66,1.25H3.74V.83H1.66Z"/><circle class="cls-1" cx="12.89" cy="5.4" r="0.42"/><circle class="cls-1" cx="13.72" cy="4.57" r="0.42"/><circle class="cls-1" cx="14.55" cy="5.4" r="0.42"/><circle class="cls-1" cx="13.72" cy="6.24" r="0.42"/><circle class="cls-1" cx="3.33" cy="9.15" r="0.42"/><circle class="cls-1" cx="4.99" cy="9.15" r="0.42"/><circle class="cls-1" cx="4.16" cy="9.98" r="0.42"/><circle class="cls-1" cx="5.82" cy="9.98" r="0.42"/><circle class="cls-1" cx="4.99" cy="10.81" r="0.42"/><circle class="cls-1" cx="7.48" cy="9.98" r="0.42"/><circle class="cls-1" cx="6.65" cy="10.81" r="0.42"/><circle class="cls-1" cx="8.31" cy="10.81" r="0.42"/><circle class="cls-1" cx="9.15" cy="9.98" r="0.42"/><circle class="cls-1" cx="10.81" cy="9.98" r="0.42"/><circle class="cls-1" cx="10.81" cy="11.64" r="0.42"/><circle class="cls-1" cx="11.64" cy="10.81" r="0.42"/><circle class="cls-1" cx="12.47" cy="9.98" r="0.42"/><circle class="cls-1" cx="14.14" cy="9.98" r="0.42"/><circle class="cls-1" cx="13.3" cy="10.81" r="0.42"/><circle class="cls-1" cx="14.97" cy="10.81" r="0.42"/><circle class="cls-1" cx="15.8" cy="9.98" r="0.42"/><circle class="cls-1" cx="16.63" cy="9.15" r="0.42"/><circle class="cls-1" cx="14.97" cy="9.15" r="0.42"/><circle class="cls-1" cx="12.47" cy="11.64" r="0.42"/><circle class="cls-1" cx="9.98" cy="12.47" r="0.42"/><circle class="cls-1" cx="9.15" cy="13.3" r="0.42"/><circle class="cls-1" cx="10.81" cy="13.3" r="0.42"/><circle class="cls-1" cx="9.98" cy="14.14" r="0.42"/><circle class="cls-1" cx="9.15" cy="14.97" r="0.42"/><circle class="cls-1" cx="10.81" cy="14.97" r="0.42"/><circle class="cls-1" cx="9.98" cy="15.8" r="0.42"/><circle class="cls-1" cx="9.15" cy="16.63" r="0.42"/><circle class="cls-1" cx="10.81" cy="16.63" r="0.42"/><circle class="cls-1" cx="9.98" cy="17.46" r="0.42"/><circle class="cls-1" cx="9.15" cy="18.29" r="0.42"/><circle class="cls-1" cx="10.81" cy="18.29" r="0.42"/><circle class="cls-1" cx="9.98" cy="19.12" r="0.42"/><circle class="cls-1" cx="9.15" cy="19.96" r="0.42"/><circle class="cls-1" cx="10.81" cy="19.96" r="0.42"/><circle class="cls-1" cx="9.98" cy="20.79" r="0.42"/><circle class="cls-1" cx="9.15" cy="21.62" r="0.42"/><circle class="cls-1" cx="10.81" cy="21.62" r="0.42"/><circle class="cls-1" cx="9.98" cy="10.81" r="0.42"/><circle class="cls-1" cx="9.15" cy="11.64" r="0.42"/><circle class="cls-1" cx="7.48" cy="11.64" r="0.42"/><circle class="cls-1" cx="12.06" cy="6.24" r="0.42"/><circle class="cls-1" cx="12.06" cy="4.57" r="0.42"/><path class="cls-1" d="M11.32,22.9l-.49-.23,0-.28V13.3A1.55,1.55,0,0,1,12,11.77l5.84-2.41v8.73Zm5.73-12.3-4.81,2a.74.74,0,0,0-.6.72v8.34l5.41-4Z"/><rect class="cls-1" x="8.73" y="22.03" width="2.49" height="0.83"/></g></g></svg>