<svg xmlns="http://www.w3.org/2000/svg" viewBox="0 0 227.03 227.07"><defs><style>.cls-1,.cls-2,.cls-3{fill:none;stroke:#4d4d4d;stroke-width:2.83px;}.cls-1,.cls-3{stroke-linecap:round;}.cls-1,.cls-2{stroke-miterlimit:10;}.cls-3{stroke-linejoin:round;}.cls-4{font-size:17.48px;}.cls-4,.cls-5{fill:#4d4d4d;font-family:NeutraTextTF-BoldItalicAlt, Neutra Text TF;font-weight:700;font-style:italic;}.cls-5{font-size:15.14px;}</style></defs><title>Asset 19</title><g id="Layer_2" data-name="Layer 2"><g id="Layer_1-2" data-name="Layer 1"><circle class="cls-1" cx="113.51" cy="113.54" r="83.71"/><path class="cls-1" d="M180.69,96.29a69.36,69.36,0,0,0-134.36,0"/><path class="cls-1" d="M46.92,132.94a69.37,69.37,0,0,0,133.18,0"/><ellipse class="cls-2" cx="113.31" cy="70.59" rx="28.38" ry="12.39"/><polyline class="cls-1" points="130.5 89.35 130.5 124.26 123.74 127.64 130.5 131.69 130.5 155.79"/><line class="cls-1" x1="112.71" y1="89.35" x2="112.71" y2="99.04"/><polyline class="cls-1" points="112.71 109.62 112.71 120.43 116.53 124.48 112.37 128.65 112.37 135.07"/><line class="cls-1" x1="112.71" y1="142.05" x2="112.71" y2="159.84"/><polyline class="cls-1" points="98.29 89.35 98.29 103.77 92.1 109.96 98.29 114.13 98.29 127.86 95.37 131.69 98.29 135.07 98.29 142.05"/><line class="cls-1" x1="98.29" y1="148.58" x2="98.29" y2="156.46"/><path class="cls-1" d="M92.82,72.5a2.25,2.25,0,0,1-1-1.68c0-3,9.52-5.52,21.28-5.52"/><path class="cls-1" d="M127.84,66.84c4,1,6.53,2.41,6.53,4,0,3-9.53,5.51-21.28,5.51"/><path class="cls-1" d="M141.69,155V141.62l-.1,0h0c-3-.16-5.41-6.7-5.41-14.75s2.47-14.75,5.52-14.75V70.59C141.69,77.43,129,83,113.31,83S84.94,77.43,84.94,70.59V155c0,6.84,12.7,12.39,28.37,12.39S141.69,161.88,141.69,155Z"/><path class="cls-3" d="M141.59,141.64h0c-3-.16-5.41-6.7-5.41-14.75s2.47-14.75,5.52-14.75h.11l2.52,1.78,9.87,7c-2.12,0-3.83,4-3.83,9s1.71,9,3.83,9l-11.52,2.47-1,.21Z"/><ellipse class="cls-1" cx="153.96" cy="129.93" rx="3.83" ry="9.01"/><text class="cls-4" transform="translate(167.13 120.98)">UT</text><text class="cls-4" transform="translate(34.98 120.94)">LEHI</text><text class="cls-5" transform="matrix(0.28, -0.96, 0.96, 0.28, 16.23, 87.46)">•</text><text class="cls-5" transform="matrix(0.34, -0.94, 0.94, 0.34, 18.25, 80.85)"> </text><text class="cls-5" transform="translate(20.07 75.34) rotate(-63.71)">W</text><text class="cls-5" transform="matrix(0.56, -0.83, 0.83, 0.56, 27.12, 61.59)">A</text><text class="cls-5" transform="translate(34.22 51.37) rotate(-49.61)">S</text><text class="cls-5" transform="translate(41.22 43.3) rotate(-43.04)">A</text><text class="cls-5" transform="matrix(0.8, -0.6, 0.6, 0.8, 49.41, 35.78)">T</text><text class="cls-5" transform="translate(58.6 28.97) rotate(-30.01)">C</text><text class="cls-5" transform="translate(70.27 22.44) rotate(-22.42)">H</text><text class="cls-5" transform="matrix(0.96, -0.29, 0.29, 0.96, 82.68, 17.66)"> </text><text class="cls-5" transform="matrix(0.98, -0.18, 0.18, 0.98, 88.15, 15.83)">W</text><text class="cls-5" transform="translate(104.56 13.09) rotate(-1.7)">O</text><text class="cls-5" transform="matrix(0.99, 0.11, -0.11, 0.99, 119.04, 12.84)">O</text><text class="cls-5" transform="translate(133.41 14.7) rotate(14.22)">D</text><text class="cls-5" transform="matrix(0.93, 0.38, -0.38, 0.93, 145.02, 17.63)">W</text><text class="cls-5" transform="matrix(0.86, 0.52, -0.52, 0.86, 160.29, 24.18)">O</text><text class="cls-5" transform="matrix(0.78, 0.62, -0.62, 0.78, 172.57, 31.88)">R</text><text class="cls-5" transform="translate(181.73 39.36) rotate(45.34)">K</text><text class="cls-5" transform="translate(190.28 48.38) rotate(50.85)">I</text><text class="cls-5" transform="translate(194.73 53.82) rotate(56.56)">N</text><text class="cls-5" transform="matrix(0.43, 0.9, -0.9, 0.43, 201.79, 64.76)">G</text><text class="cls-5" transform="translate(207.77 78.08) rotate(70.24)"> </text><text class="cls-5" transform="matrix(0.28, 0.96, -0.96, 0.28, 209.69, 83.64)">•</text><text class="cls-5" transform="translate(214.27 110.34) rotate(91.2)">C</text><text class="cls-5" transform="translate(213.88 123.35) rotate(98.87)">O</text><text class="cls-5" transform="translate(211.55 137.38) rotate(107.28)">M</text><text class="cls-5" transform="translate(206.83 151.89) rotate(116.01)">M</text><text class="cls-5" transform="matrix(-0.56, 0.83, -0.83, -0.56, 199.96, 165.4)">U</text><text class="cls-5" transform="translate(192.66 175.96) rotate(131.22)">N</text><text class="cls-5" transform="matrix(-0.73, 0.68, -0.68, -0.73, 183.83, 185.6)">I</text><text class="cls-5" transform="translate(178.65 190.41) rotate(142.16)">T</text><text class="cls-5" transform="matrix(-0.86, 0.51, -0.51, -0.86, 169.44, 197.4)">Y</text><text class="cls-5" transform="translate(158.28 203.74) rotate(154.43)"> </text><text class="cls-5" transform="translate(153.01 206.27) rotate(159.49)">B</text><text class="cls-5" transform="translate(142.08 210.23) rotate(166.47)">U</text><text class="cls-5" transform="translate(129.5 212.97) rotate(172.15)">I</text><text class="cls-5" transform="translate(122.5 213.89) rotate(177.27)">L</text><text class="cls-5" transform="translate(111.54 214.31) rotate(-176.07)">D</text><text class="cls-5" transform="translate(98.72 213.15) rotate(-170.41)">I</text><text class="cls-5" transform="translate(91.79 211.99) rotate(-164.66)">N</text><text class="cls-5" transform="matrix(-0.92, -0.39, 0.39, -0.92, 79.27, 208.42)">G</text><text class="cls-5" transform="translate(66.01 202.33) rotate(-150.95)"> </text><text class="cls-5" transform="matrix(-0.83, -0.56, 0.56, -0.83, 60.91, 199.48)">S</text><text class="cls-5" transform="translate(52.07 193.46) rotate(-139.48)">N</text><text class="cls-5" transform="translate(42.29 184.72) rotate(-133.78)">I</text><text class="cls-5" transform="translate(37.42 179.67) rotate(-127.99)">C</text><text class="cls-5" transform="translate(29.34 168.96) rotate(-120.94)">E</text><text class="cls-5" transform="translate(23.63 158.95) rotate(-115.99)"> </text><text class="cls-5" transform="translate(21.07 153.71) rotate(-111)">2</text><text class="cls-5" transform="matrix(-0.25, -0.97, 0.97, -0.25, 17.09, 142.91)">0</text><text class="cls-5" transform="translate(14.38 131.73) rotate(-97.83)">1</text><text class="cls-5" transform="translate(12.97 120.28) rotate(-91.31)">8</text></g></g></svg>